<svg width="99" height="77" viewBox="0 0 99 77" fill="none" xmlns="http://www.w3.org/2000/svg">
<path d="M88 0C94.0672 0 99 4.92422 99 11V16.5H0V11C0 4.92422 4.92422 0 11 0H88ZM99 66C99 72.0672 94.0672 77 88 77H11C4.92422 77 0 72.0672 0 66V33H99V66ZM19.25 55C17.7375 55 16.5 56.2375 16.5 57.75C16.5 59.2625 17.7375 60.5 19.25 60.5H30.25C31.7625 60.5 33 59.2625 33 57.75C33 56.2375 31.7625 55 30.25 55H19.25ZM41.25 60.5H63.25C64.7625 60.5 66 59.2625 66 57.75C66 56.2375 64.7625 55 63.25 55H41.25C39.7375 55 38.5 56.2375 38.5 57.75C38.5 59.2625 39.7375 60.5 41.25 60.5Z" fill="#503102" fill-opacity="0.83"/>
</svg>
