<svg width="99" height="81" viewBox="0 0 99 81" fill="none" xmlns="http://www.w3.org/2000/svg">
<path d="M14.5588 17.3571C14.6553 17.3571 14.7535 17.3571 14.85 17.3571C16.1967 10.756 22.0748 5.78571 29.1176 5.78571C31.6836 5.78571 34.2314 6.52701 36.5608 7.81975C38.9812 3.1731 43.8767 0 49.5 0C55.1233 0 60.0187 3.17491 62.4392 7.81975C64.6048 6.52701 67.1526 5.78571 69.8824 5.78571C76.9252 5.78571 82.6395 10.756 84.15 17.3571C84.241 17.3571 84.3502 17.3571 84.4412 17.3571C90.8653 17.3571 96.0882 22.5462 96.0882 28.9286C96.0882 31.044 95.5241 33.0147 94.5232 34.7143H4.46956C3.47956 33.0147 2.91176 31.044 2.91176 28.9286C2.91176 22.5462 8.12564 17.3571 14.5588 17.3571ZM0 45.454C0 42.7239 2.23478 40.5 4.99186 40.5H94.0136C96.7616 40.5 99 42.7239 99 45.454C99 58.6346 90.3739 69.8263 78.4175 73.7317C78.5449 74.2018 78.6176 74.708 78.6176 75.2143C78.6176 78.4145 76.0153 81 72.7941 81H26.2059C22.9847 81 20.3824 78.4145 20.3824 75.2143C20.3824 74.708 20.4551 74.2018 20.5825 73.7317C8.6261 69.8263 0 58.6346 0 45.454Z" fill="#503102" fill-opacity="0.83"/>
</svg>
