<svg width="57" height="57" viewBox="0 0 57 57" fill="none" xmlns="http://www.w3.org/2000/svg">
<path d="M28.5064 13.8859C20.4189 13.8859 13.8955 20.4107 13.8955 28.5C13.8955 36.5893 20.4189 43.1141 28.5064 43.1141C36.5938 43.1141 43.1172 36.5893 43.1172 28.5C43.1172 20.4107 36.5938 13.8859 28.5064 13.8859ZM28.5064 38.0011C23.28 38.0011 19.0074 33.7402 19.0074 28.5C19.0074 23.2598 23.2673 18.9989 28.5064 18.9989C33.7454 18.9989 38.0053 23.2598 38.0053 28.5C38.0053 33.7402 33.7327 38.0011 28.5064 38.0011ZM47.1228 13.2881C47.1228 15.1833 45.5968 16.6968 43.7148 16.6968C41.8201 16.6968 40.3069 15.1705 40.3069 13.2881C40.3069 11.4057 41.8329 9.87945 43.7148 9.87945C45.5968 9.87945 47.1228 11.4057 47.1228 13.2881ZM56.7997 16.7477C56.5835 12.1816 55.5408 8.13695 52.1965 4.80459C48.8649 1.47222 44.8211 0.429265 40.2561 0.200324C35.5511 -0.0667745 21.4489 -0.0667745 16.7439 0.200324C12.1916 0.416546 8.14785 1.4595 4.80351 4.79187C1.45917 8.12423 0.429169 12.1689 0.200279 16.735C-0.0667596 21.441 -0.0667596 35.5463 0.200279 40.2523C0.416453 44.8184 1.45917 48.863 4.80351 52.1954C8.14785 55.5278 12.1789 56.5707 16.7439 56.7997C21.4489 57.0668 35.5511 57.0668 40.2561 56.7997C44.8211 56.5835 48.8649 55.5405 52.1965 52.1954C55.5281 48.863 56.5708 44.8184 56.7997 40.2523C57.0668 35.5463 57.0668 21.4537 56.7997 16.7477ZM50.7214 45.3017C49.7296 47.7947 47.8094 49.7152 45.3044 50.72C41.5531 52.2081 32.6518 51.8647 28.5064 51.8647C24.3609 51.8647 15.4469 52.1954 11.7084 50.72C9.21601 49.7279 7.29587 47.8074 6.2913 45.3017C4.80351 41.5496 5.14685 32.6464 5.14685 28.5C5.14685 24.3536 4.81623 15.4376 6.2913 11.6983C7.28316 9.20534 9.20329 7.28478 11.7084 6.27998C15.4596 4.79187 24.3609 5.13528 28.5064 5.13528C32.6518 5.13528 41.5658 4.80458 45.3044 6.27998C47.7967 7.27206 49.7168 9.19263 50.7214 11.6983C52.2092 15.4504 51.8659 24.3536 51.8659 28.5C51.8659 32.6464 52.2092 41.5624 50.7214 45.3017Z" fill="white"/>
</svg>
