<svg width="86" height="85" viewBox="0 0 86 85" fill="none" xmlns="http://www.w3.org/2000/svg">
<path d="M36.8571 42.5V30.3571H46.0714C49.4692 30.3571 52.2143 33.0703 52.2143 36.4286C52.2143 39.7868 49.4692 42.5 46.0714 42.5H36.8571ZM73.7143 0C80.4906 0 86 5.43583 86 12.1429V72.8571C86 79.5547 80.4906 85 73.7143 85H12.2857C5.49978 85 0 79.5547 0 72.8571V12.1429C0 5.43583 5.49978 0 12.2857 0H73.7143ZM64.5 36.4286C64.5 26.202 56.2455 18.2143 46.0714 18.2143H32.25C28.0076 18.2143 24.5714 21.6105 24.5714 25.8036V60.7143C24.5714 64.0725 27.3165 66.7857 30.7143 66.7857C34.1121 66.7857 36.8571 64.0725 36.8571 60.7143V54.6429H46.0714C56.2455 54.6429 64.5 46.4844 64.5 36.4286Z" fill="#503102" fill-opacity="0.83"/>
</svg>
