<svg width="57" height="57" viewBox="0 0 57 57" fill="none" xmlns="http://www.w3.org/2000/svg">
<path d="M28.5 0C12.7598 0 0 12.7598 0 28.5C0 44.2402 12.7598 57 28.5 57C44.2402 57 57 44.2402 57 28.5C57 12.7598 44.2402 0 28.5 0ZM41.7102 19.3823C41.2813 23.8889 39.4255 34.8249 38.481 39.8724C38.0815 42.0081 37.2948 42.7243 36.5333 42.7942C34.8785 42.9466 33.6215 41.7006 32.0185 40.6497C29.5101 39.0055 28.0931 37.9819 25.6582 36.3774C22.8444 34.5232 24.6685 33.5044 26.2721 31.8381C26.6917 31.4022 33.984 24.7694 34.1251 24.1677C34.1427 24.0924 34.1595 23.8114 33.9925 23.6639C33.8254 23.5163 33.5799 23.5663 33.4023 23.6064C33.1508 23.6635 29.1437 26.3121 21.3809 31.5521C20.2435 32.3331 19.2133 32.7137 18.2902 32.6938C17.2726 32.6718 15.3152 32.1185 13.86 31.6453C12.0752 31.0652 10.6566 30.7585 10.7801 29.7732C10.8445 29.2599 11.5512 28.7351 12.9004 28.1988C21.2087 24.579 26.7489 22.1925 29.5209 21.0393C37.4357 17.7472 39.0803 17.1754 40.1522 17.1563C40.3881 17.1524 40.9152 17.2108 41.2566 17.4879C41.4837 17.6852 41.6285 17.9607 41.6623 18.2597C41.7201 18.6309 41.7362 19.0075 41.7102 19.3823Z" fill="white"/>
</svg>
