<svg width="99" height="69" viewBox="0 0 99 69" fill="none" xmlns="http://www.w3.org/2000/svg">
<path d="M49.3611 49.2438C43.8928 49.2438 39.4609 53.6667 39.4609 59.1219C39.4609 64.5772 43.8943 69 49.3611 69C54.8278 69 59.2612 64.5772 59.2612 59.1219C59.2612 53.6667 54.9609 49.2438 49.3611 49.2438ZM49.5003 24.5525C38.6333 24.5525 28.1685 28.5031 20.0318 35.6682C17.9899 37.608 17.7888 40.7253 19.5987 42.7778C21.424 44.8148 24.5488 45.0154 26.5907 43.2099C32.9175 37.6389 41.0542 34.5679 49.5003 34.5679C57.9464 34.5679 66.0985 37.6358 72.4099 43.2099C73.3535 44.0432 74.5292 44.4444 75.6893 44.4444C77.0574 44.4444 78.4212 43.8802 79.4019 42.7762C81.2118 40.7253 81.0262 37.608 78.9688 35.8025C70.8321 28.642 60.375 24.5525 49.5003 24.5525ZM97.4852 19.2438C84.5067 6.83333 67.4753 0 49.5003 0C31.5253 0 14.4923 6.83333 1.52219 19.2438C-0.450109 21.1343 -0.513532 24.2593 1.37717 26.2269C3.26748 28.1991 6.39996 28.2515 8.3769 26.3715C19.3512 15.6019 34.0931 9.87654 49.5003 9.87654C64.9074 9.87654 79.371 15.7361 90.617 26.3735C91.5915 27.2839 92.8136 27.7469 94.0511 27.7469C95.3514 27.7469 96.6514 27.2406 97.6229 26.2278C99.5117 24.2593 99.4498 21.0031 97.4852 19.2438Z" fill="#503102" fill-opacity="0.83"/>
</svg>
